<?xml version="1.0" encoding="UTF-8"?>
<svg width="70px" height="66px" viewBox="0 0 70 66" version="1.1" xmlns="http://www.w3.org/2000/svg" xmlns:xlink="http://www.w3.org/1999/xlink">
    <!-- Generator: Sketch 50 (54983) - http://www.bohemiancoding.com/sketch -->
    <title>Icons/automations</title>
    <desc>Created with Sketch.</desc>
    <defs>
        <rect id="path-1" x="0" y="2.61971831" width="62" height="57.6338028" rx="8"></rect>
        <filter x="-10.5%" y="-9.5%" width="121.0%" height="122.6%" filterUnits="objectBoundingBox" id="filter-2">
            <feOffset dx="0" dy="1" in="SourceAlpha" result="shadowOffsetOuter1"></feOffset>
            <feGaussianBlur stdDeviation="2" in="shadowOffsetOuter1" result="shadowBlurOuter1"></feGaussianBlur>
            <feColorMatrix values="0 0 0 0 0.176470588   0 0 0 0 0.192156863   0 0 0 0 0.219607843  0 0 0 0.25 0" type="matrix" in="shadowBlurOuter1"></feColorMatrix>
        </filter>
    </defs>
    <g id="Page-1" stroke="none" stroke-width="1" fill="none" fill-rule="evenodd">
        <g id="Kayako-Desk.com-Alternative-Landing-Page---1360" transform="translate(-191.000000, -3013.000000)">
            <g id="Section:-Features" transform="translate(0.000000, 2754.000000)">
                <g id="Workflow-Automation" transform="translate(195.000000, 260.000000)">
                    <g id="Icons/White-Box/automations">
                        <g>
                            <g id="Rectangle-100" fill-rule="nonzero">
                                <use fill="black" fill-opacity="1" filter="url(#filter-2)" xlink:href="#path-1"></use>
                                <use fill="#FFFFFF" fill-rule="evenodd" xlink:href="#path-1"></use>
                            </g>
                            <g id="Group-8" transform="translate(31.687534, 31.095528) rotate(23.000000) translate(-31.687534, -31.095528) translate(11.960262, 5.771584)" stroke-width="1.5">
                                <path d="M26.0610168,34.3709578 L23.7641645,34.3709578 C23.1764406,34.3709578 22.6517674,34.0395286 22.4288376,33.5343606 C22.1984018,33.01454 22.3169974,32.438202 22.7313316,32.053744 L24.3556415,30.5438221 L21.1708231,27.5832867 L19.5465132,29.0932086 C19.1329296,29.4776666 18.5129296,29.5886081 17.9717432,29.3813776 C17.411041,29.1671697 17.0537529,28.6794453 17.0537529,28.1331104 L17.0537529,25.9980083 L12.5501209,25.9980083 L12.5501209,28.1331104 C12.5501209,28.6794453 12.1928328,29.1671697 11.6501451,29.3744002 C11.0909441,29.5886081 10.4709441,29.4776666 10.0573606,29.0932086 L8.43305068,27.5832867 L5.24823228,30.5438221 L6.8725422,32.053744 C7.28687634,32.438202 7.40547199,33.01454 7.1825422,33.5176147 C6.95210637,34.0395286 6.42743325,34.3709578 5.83970928,34.3709578 L3.54285698,34.3709578 L3.54285698,38.5574327 L5.83970928,38.5574327 C6.42743325,38.5574327 6.95210637,38.8888618 7.17503616,39.3940299 C7.40547199,39.9138505 7.28687634,40.4901885 6.8725422,40.8746465 L5.24823228,42.3845684 L8.43305068,45.3451038 L10.0573606,43.8351819 C10.4709441,43.4500262 11.0909441,43.3397824 11.6321305,43.5470129 C12.1935834,43.7612208 12.5501209,44.2489451 12.5501209,44.7952801 L12.5501209,46.9303822 L17.0537529,46.9303822 L17.0537529,44.7952801 C17.0537529,44.2489451 17.4102904,43.7612208 17.9537287,43.5539902 C18.5129296,43.3397824 19.1329296,43.4500262 19.5465132,43.8351819 L21.1708231,45.3451038 L24.3556415,42.3845684 L22.7313316,40.8746465 C22.3169974,40.4901885 22.1984018,39.9138505 22.4213316,39.4107758 C22.6517674,38.8888618 23.1764406,38.5574327 23.7641645,38.5574327 L26.0610168,38.5574327 L26.0610168,34.3709578 Z" id="Stroke-290" stroke="#5F6C73" transform="translate(14.801937, 36.464195) rotate(-23.000000) translate(-14.801937, -36.464195) "></path>
                                <path d="M11.7995157,36.4641953 C11.7995157,34.9228749 13.1438499,33.6732122 14.801937,33.6732122 C16.4600242,33.6732122 17.8043583,34.9228749 17.8043583,36.4641953 C17.8043583,38.0055158 16.4600242,39.2551785 14.801937,39.2551785 C13.1438499,39.2551785 11.7995157,38.0055158 11.7995157,36.4641953 Z" id="Stroke-287" stroke="#F37070" fill="#FFFFFF" fill-rule="nonzero"></path>
                                <path d="M35.9148082,11.6995033 L33.617956,11.6995033 C33.030232,11.6995033 32.5055589,11.368074 32.2826291,10.8629061 C32.0521933,10.3430855 32.1707889,9.76674744 32.585123,9.38228947 L34.2094329,7.87236758 L31.0246146,4.91183216 L29.4003046,6.42175407 C28.9867211,6.806212 28.3667211,6.91715358 27.8255347,6.70992308 C27.2648324,6.49571512 26.9075443,6.00799081 26.9075443,5.46165584 L26.9075443,3.32655371 L22.4039123,3.32655371 L22.4039123,5.46165584 C22.4039123,6.00799081 22.0466242,6.49571512 21.5039366,6.70294562 C20.9447356,6.91715358 20.3247356,6.806212 19.9111521,6.42175407 L18.2868422,4.91183216 L15.1020238,7.87236758 L16.7263337,9.38228947 C17.1406678,9.76674744 17.2592635,10.3430855 17.0363337,10.8461602 C16.8058979,11.368074 16.2812247,11.6995033 15.6935008,11.6995033 L13.3966484,11.6995033 L13.3966484,15.8859781 L15.6935008,15.8859781 C16.2812247,15.8859781 16.8058979,16.2174073 17.0288276,16.7225752 C17.2592635,17.2423959 17.1406678,17.8187339 16.7263337,18.2031918 L15.1020238,19.7131137 L18.2868422,22.6736492 L19.9111521,21.1637272 C20.3247356,20.7785716 20.9447356,20.6683277 21.4859221,20.8755582 C22.0473749,21.0897662 22.4039123,21.5774905 22.4039123,22.1238254 L22.4039123,24.2589276 L26.9075443,24.2589276 L26.9075443,22.1238254 C26.9075443,21.5774905 27.2640819,21.0897662 27.8075201,20.8825357 C28.3667211,20.6683277 28.9867211,20.7785716 29.4003046,21.1637272 L31.0246146,22.6736492 L34.2094329,19.7131137 L32.585123,18.2031918 C32.1707889,17.8187339 32.0521933,17.2423959 32.275123,16.7393211 C32.5055589,16.2174073 33.030232,15.8859781 33.617956,15.8859781 L35.9148082,15.8859781 L35.9148082,11.6995033 Z" id="Stroke-290" stroke="#5F6C73" transform="translate(24.655728, 13.792741) rotate(-23.000000) translate(-24.655728, -13.792741) "></path>
                                <path d="M21.5012546,13.8151287 C21.5012546,12.2738083 22.8455887,11.0241455 24.5036759,11.0241455 C26.161763,11.0241455 27.5060972,12.2738083 27.5060972,13.8151287 C27.5060972,15.3564491 26.161763,16.6061119 24.5036759,16.6061119 C22.8455887,16.6061119 21.5012546,15.3564491 21.5012546,13.8151287 Z" id="Stroke-287" stroke="#F37070" fill="#FFFFFF" fill-rule="nonzero"></path>
                            </g>
                        </g>
                    </g>
                </g>
            </g>
        </g>
    </g>
</svg>