<?xml version="1.0" encoding="UTF-8"?>
<svg width="70px" height="70px" viewBox="0 0 70 70" version="1.1" xmlns="http://www.w3.org/2000/svg" xmlns:xlink="http://www.w3.org/1999/xlink">
    <!-- Generator: Sketch 50 (54983) - http://www.bohemiancoding.com/sketch -->
    <title>Icons/help-center-icon</title>
    <desc>Created with Sketch.</desc>
    <defs>
        <rect id="path-1" x="0" y="0" width="62" height="62" rx="8"></rect>
        <filter x="-10.5%" y="-8.9%" width="121.0%" height="121.0%" filterUnits="objectBoundingBox" id="filter-2">
            <feOffset dx="0" dy="1" in="SourceAlpha" result="shadowOffsetOuter1"></feOffset>
            <feGaussianBlur stdDeviation="2" in="shadowOffsetOuter1" result="shadowBlurOuter1"></feGaussianBlur>
            <feColorMatrix values="0 0 0 0 0.176470588   0 0 0 0 0.192156863   0 0 0 0 0.219607843  0 0 0 0.25 0" type="matrix" in="shadowBlurOuter1"></feColorMatrix>
        </filter>
    </defs>
    <g id="Page-1" stroke="none" stroke-width="1" fill="none" fill-rule="evenodd">
        <g id="Kayako-Desk.com-Alternative-Landing-Page---1360" transform="translate(-791.000000, -3091.000000)">
            <g id="Section:-Features" transform="translate(0.000000, 2754.000000)">
                <g id="Support-Center" transform="translate(795.000000, 340.000000)">
                    <g id="Icons/White-Box/help-center-icon">
                        <g id="help-center-icon">
                            <g id="Rectangle-100" fill-rule="nonzero">
                                <use fill="black" fill-opacity="1" filter="url(#filter-2)" xlink:href="#path-1"></use>
                                <use fill="#FFFFFF" fill-rule="evenodd" xlink:href="#path-1"></use>
                            </g>
                            <path d="M34.0060606,48.8484848 L41.5212121,48.8484848 C44.5293518,48.8484848 46.969697,46.4220053 46.969697,43.4256198 L46.969697,38.9421488 C46.969697,38.4233358 46.5491159,38.0027549 46.030303,38.0027549 C45.5114901,38.0027549 45.0909091,38.4233358 45.0909091,38.9421488 L45.0909091,43.4256198 C45.0909091,45.3819754 43.4941149,46.969697 41.5212121,46.969697 L34.0060606,46.969697 C33.4872477,46.969697 33.0666667,47.390278 33.0666667,47.9090909 C33.0666667,48.4279038 33.4872477,48.8484848 34.0060606,48.8484848 Z" id="Shape" fill="#F37070" fill-rule="nonzero"></path>
                            <path d="M23.4848485,30.530303 C24.0036614,30.530303 24.4242424,30.9508841 24.4242424,31.469697 L24.4242424,41.9311294 C24.4242424,42.4499424 24.0036614,42.8705234 23.4848485,42.8705234 L18.9757576,42.8705234 C16.7980421,42.8705234 15.030303,41.1128283 15.030303,38.9421488 L15.030303,31.469697 C15.030303,30.9508841 15.4508841,30.530303 15.969697,30.530303 L23.4848485,30.530303 Z M22.5454545,32.4090909 L16.9090909,32.4090909 L16.9090909,38.9421488 C16.9090909,40.0727984 17.8332791,40.9917355 18.9757576,40.9917355 L22.5454545,40.9917355 L22.5454545,32.4090909 Z" id="Shape" fill="#5F6C73" fill-rule="nonzero"></path>
                            <path d="M46.030303,30.530303 C46.5491159,30.530303 46.969697,30.9508841 46.969697,31.469697 L46.969697,38.9421488 C46.969697,41.1128283 45.2019579,42.8705234 43.0242424,42.8705234 L38.5151515,42.8705234 C37.9963386,42.8705234 37.5757576,42.4499424 37.5757576,41.9311294 L37.5757576,31.469697 C37.5757576,30.9508841 37.9963386,30.530303 38.5151515,30.530303 L46.030303,30.530303 Z M39.4545455,32.4090909 L39.4545455,40.9917355 L43.0242424,40.9917355 C44.1667209,40.9917355 45.0909091,40.0727984 45.0909091,38.9421488 L45.0909091,32.4090909 L39.4545455,32.4090909 Z" id="Shape" fill="#5F6C73" fill-rule="nonzero"></path>
                            <path d="M46.969697,31.469697 L46.969697,29.9752066 C46.969697,21.2011214 39.8188548,14.0909091 31,14.0909091 C22.1811452,14.0909091 15.030303,21.2011214 15.030303,29.9752066 L15.030303,31.469697 C15.030303,31.9885099 15.4508841,32.4090909 15.969697,32.4090909 C16.4885099,32.4090909 16.9090909,31.9885099 16.9090909,31.469697 L16.9090909,29.9752066 C16.9090909,22.2411513 23.2163821,15.969697 31,15.969697 C38.7836179,15.969697 45.0909091,22.2411513 45.0909091,29.9752066 L45.0909091,31.469697 C45.0909091,31.9885099 45.5114901,32.4090909 46.030303,32.4090909 C46.5491159,32.4090909 46.969697,31.9885099 46.969697,31.469697 Z" id="Shape" fill="#5F6C73" fill-rule="nonzero"></path>
                        </g>
                    </g>
                </g>
            </g>
        </g>
    </g>
</svg>