<?xml version="1.0" encoding="UTF-8"?>
<svg width="70px" height="70px" viewBox="0 0 70 70" version="1.1" xmlns="http://www.w3.org/2000/svg" xmlns:xlink="http://www.w3.org/1999/xlink">
    <!-- Generator: Sketch 47.1 (45422) - http://www.bohemiancoding.com/sketch -->
    <title>icon--integrations</title>
    <desc>Created with Sketch.</desc>
    <defs></defs>
    <g id="Page-1" stroke="none" stroke-width="1" fill="none" fill-rule="evenodd">
        <g id="Demo-page" transform="translate(-913.000000, -1179.000000)">
            <g id="Group-2" transform="translate(113.000000, 921.000000)">
                <g id="icon--integrations" transform="translate(800.000000, 258.000000)">
                    <rect id="Rectangle-243-Copy-5" fill="#EBEEF0" x="0" y="0" width="70" height="70" rx="4"></rect>
                    <g id="Group-9" transform="translate(13.000000, 10.000000)" stroke-width="2" stroke-linecap="square">
                        <path d="M17.9642227,32.7528345 L17.9642227,27.0042832 L14.3713782,27.0042832 C14.3713782,28.988252 12.7625024,30.5971277 10.7785336,30.5971277 C8.79456488,30.5971277 7.18568909,28.988252 7.18568909,27.0042832 L3.59284455,27.0042832 L3.59284455,32.7528345 C1.60887579,32.7528345 0,34.3617103 0,36.345679 C0,38.3296478 1.60887579,39.9385236 3.59284455,39.9385236 L3.59284455,45.6870748 L7.18568909,45.6870748 C7.18568909,43.7031061 8.79456488,42.0942303 10.7785336,42.0942303 C12.7625024,42.0942303 14.3713782,43.7031061 14.3713782,45.6870748 L17.9642227,45.6870748 L17.9642227,39.9385236 C19.9481915,39.9385236 21.5570673,38.3296478 21.5570673,36.345679 C21.5570673,34.3617103 19.9481915,32.7528345 17.9642227,32.7528345 L17.9642227,32.7528345 Z" id="Stroke-107" stroke="#F37070" fill="#FFFFFF"></path>
                        <path d="M43.1257244,28.2212144 L37.3771731,28.2212144 C37.3771731,26.6338957 36.0902162,25.3469388 34.5028975,25.3469388 C32.9155787,25.3469388 31.6286218,26.6338957 31.6286218,28.2212144 L25.8800705,28.2212144 L25.8800705,32.5326279 C27.8640393,32.5326279 29.4729151,34.1415037 29.4729151,36.1254724 C29.4729151,38.1094412 27.8640393,39.718317 25.8800705,39.718317 L25.8800705,44.7482993 L30.9100529,44.7482993 C30.9100529,42.7643306 32.5189287,41.1554548 34.5028975,41.1554548 C36.4868662,41.1554548 38.095742,42.7643306 38.095742,44.7482993 L43.1257244,44.7482993 L43.1257244,38.999748 C44.7130431,38.999748 46,37.7127911 46,36.1254724 C46,34.5381537 44.7130431,33.2511968 43.1257244,33.2511968 L43.1257244,28.2212144 Z" id="Stroke-109" stroke="#444444"></path>
                        <path d="M18.7175611,6.62937768 L12.9690098,6.62937768 C12.9690098,5.04205896 11.6820529,3.75510204 10.0947342,3.75510204 C8.50741547,3.75510204 7.22045855,5.04205896 7.22045855,6.62937768 L1.47190728,6.62937768 L1.47190728,10.9407911 C3.45587604,10.9407911 5.06475183,12.5496669 5.06475183,14.5336357 C5.06475183,16.5176044 3.45587604,18.1264802 1.47190728,18.1264802 L1.47190728,23.1564626 L6.50188964,23.1564626 C6.50188964,21.1724938 8.11076543,19.563618 10.0947342,19.563618 C12.0787029,19.563618 13.6875787,21.1724938 13.6875787,23.1564626 L18.7175611,23.1564626 L18.7175611,17.4079113 C20.3048798,17.4079113 21.5918367,16.1209544 21.5918367,14.5336357 C21.5918367,12.946317 20.3048798,11.65936 18.7175611,11.65936 L18.7175611,6.62937768 Z" id="Stroke-109" stroke="#444444" transform="translate(11.531872, 13.455782) rotate(90.000000) translate(-11.531872, -13.455782) "></path>
                        <path d="M43.1257244,3.81305115 L37.3771731,3.81305115 C37.3771731,2.22573243 36.0902162,0.93877551 34.5028975,0.93877551 C32.9155787,0.93877551 31.6286218,2.22573243 31.6286218,3.81305115 L25.8800705,3.81305115 L25.8800705,8.1244646 C27.8640393,8.1244646 29.4729151,9.73334039 29.4729151,11.7173091 C29.4729151,13.7012779 27.8640393,15.3101537 25.8800705,15.3101537 L25.8800705,20.3401361 L30.9100529,20.3401361 C30.9100529,18.3561673 32.5189287,16.7472915 34.5028975,16.7472915 C36.4868662,16.7472915 38.095742,18.3561673 38.095742,20.3401361 L43.1257244,20.3401361 L43.1257244,14.5915848 C44.7130431,14.5915848 46,13.3046279 46,11.7173091 C46,10.1299904 44.7130431,8.84303351 43.1257244,8.84303351 L43.1257244,3.81305115 Z" id="Stroke-109" stroke="#F37070" fill="#FFFFFF" transform="translate(35.940035, 10.639456) scale(1, -1) rotate(90.000000) translate(-35.940035, -10.639456) "></path>
                    </g>
                </g>
            </g>
        </g>
    </g>
</svg>