<?xml version="1.0" encoding="UTF-8"?>
<svg width="70px" height="70px" viewBox="0 0 70 70" version="1.1" xmlns="http://www.w3.org/2000/svg" xmlns:xlink="http://www.w3.org/1999/xlink">
    <!-- Generator: Sketch 47.1 (45422) - http://www.bohemiancoding.com/sketch -->
    <title>icon--automations</title>
    <desc>Created with Sketch.</desc>
    <defs></defs>
    <g id="Page-1" stroke="none" stroke-width="1" fill="none" fill-rule="evenodd">
        <g id="Demo-page" transform="translate(-513.000000, -1179.000000)">
            <g id="Group-2" transform="translate(113.000000, 921.000000)">
                <g id="icon--automations" transform="translate(400.000000, 255.000000)">
                    <rect id="Rectangle-243-Copy-4" fill="#EBEEF0" x="0" y="3" width="70" height="70" rx="4"></rect>
                    <g id="Group-8" transform="translate(36.086097, 37.619243) rotate(23.000000) translate(-36.086097, -37.619243) translate(13.586097, 7.119243)" stroke-width="2" stroke-linecap="square">
                        <path d="M29.4237288,41.7457627 L26.8305085,41.7457627 C26.1669492,41.7457627 25.5745763,41.3432203 25.3228814,40.729661 C25.0627119,40.0983051 25.1966102,39.3983051 25.6644068,38.9313559 L27.4983051,37.0974576 L23.9025424,33.5016949 L22.0686441,35.3355932 C21.6016949,35.8025424 20.9016949,35.9372881 20.290678,35.6855932 C19.6576271,35.4254237 19.2542373,34.8330508 19.2542373,34.1694915 L19.2542373,31.5762712 L14.1694915,31.5762712 L14.1694915,34.1694915 C14.1694915,34.8330508 13.7661017,35.4254237 13.1533898,35.6771186 C12.5220339,35.9372881 11.8220339,35.8025424 11.3550847,35.3355932 L9.52118644,33.5016949 L5.92542373,37.0974576 L7.75932203,38.9313559 C8.22711864,39.3983051 8.36101695,40.0983051 8.10932203,40.709322 C7.84915254,41.3432203 7.25677966,41.7457627 6.59322034,41.7457627 L4,41.7457627 L4,46.8305085 L6.59322034,46.8305085 C7.25677966,46.8305085 7.84915254,47.2330508 8.10084746,47.8466102 C8.36101695,48.4779661 8.22711864,49.1779661 7.75932203,49.6449153 L5.92542373,51.4788136 L9.52118644,55.0745763 L11.3550847,53.240678 C11.8220339,52.7728814 12.5220339,52.6389831 13.1330508,52.890678 C13.7669492,53.1508475 14.1694915,53.7432203 14.1694915,54.4067797 L14.1694915,57 L19.2542373,57 L19.2542373,54.4067797 C19.2542373,53.7432203 19.6567797,53.1508475 20.270339,52.8991525 C20.9016949,52.6389831 21.6016949,52.7728814 22.0686441,53.240678 L23.9025424,55.0745763 L27.4983051,51.4788136 L25.6644068,49.6449153 C25.1966102,49.1779661 25.0627119,48.4779661 25.3144068,47.8669492 C25.5745763,47.2330508 26.1669492,46.8305085 26.8305085,46.8305085 L29.4237288,46.8305085 L29.4237288,41.7457627 Z" id="Stroke-290" stroke="#444444" transform="translate(16.711864, 44.288136) rotate(-23.000000) translate(-16.711864, -44.288136) "></path>
                        <path d="M13.3220339,44.2881356 C13.3220339,42.4161017 14.8398305,40.8983051 16.7118644,40.8983051 C18.5838983,40.8983051 20.1016949,42.4161017 20.1016949,44.2881356 C20.1016949,46.1601695 18.5838983,47.6779661 16.7118644,47.6779661 C14.8398305,47.6779661 13.3220339,46.1601695 13.3220339,44.2881356 L13.3220339,44.2881356 Z" id="Stroke-287" stroke="#F37070" fill="#FFFFFF"></path>
                        <path d="M40.548977,14.2098071 L37.9557567,14.2098071 C37.2921974,14.2098071 36.6998245,13.8072647 36.4481296,13.1937054 C36.1879601,12.5623495 36.3218584,11.8623495 36.789655,11.3954003 L38.6235533,9.56150201 L35.0277906,5.96573929 L33.1938923,7.7996376 C32.7269431,8.26658675 32.0269431,8.40133251 31.4159262,8.1496376 C30.7828753,7.88946811 30.3794855,7.29709523 30.3794855,6.6335359 L30.3794855,4.04031557 L25.2947397,4.04031557 L25.2947397,6.6335359 C25.2947397,7.29709523 24.8913499,7.88946811 24.2786381,8.14116302 C23.6472821,8.40133251 22.9472821,8.26658675 22.480333,7.7996376 L20.6464347,5.96573929 L17.050672,9.56150201 L18.8845703,11.3954003 C19.3523669,11.8623495 19.4862652,12.5623495 19.2345703,13.1733664 C18.9744008,13.8072647 18.3820279,14.2098071 17.7184686,14.2098071 L15.1252482,14.2098071 L15.1252482,19.2945529 L17.7184686,19.2945529 C18.3820279,19.2945529 18.9744008,19.6970952 19.2260957,20.3106545 C19.4862652,20.9420105 19.3523669,21.6420105 18.8845703,22.1089596 L17.050672,23.9428579 L20.6464347,27.5386207 L22.480333,25.7047223 C22.9472821,25.2369257 23.6472821,25.1030274 24.2582991,25.3547223 C24.8921974,25.6148918 25.2947397,26.2072647 25.2947397,26.870824 L25.2947397,29.4640444 L30.3794855,29.4640444 L30.3794855,26.870824 C30.3794855,26.2072647 30.7820279,25.6148918 31.3955872,25.3631969 C32.0269431,25.1030274 32.7269431,25.2369257 33.1938923,25.7047223 L35.0277906,27.5386207 L38.6235533,23.9428579 L36.789655,22.1089596 C36.3218584,21.6420105 36.1879601,20.9420105 36.439655,20.3309935 C36.6998245,19.6970952 37.2921974,19.2945529 37.9557567,19.2945529 L40.548977,19.2945529 L40.548977,14.2098071 Z" id="Stroke-290" stroke="#444444" transform="translate(27.837113, 16.752180) rotate(-23.000000) translate(-27.837113, -16.752180) "></path>
                        <path d="M24.27561,16.7793719 C24.27561,14.907338 25.7934066,13.3895413 27.6654405,13.3895413 C29.5374744,13.3895413 31.055271,14.907338 31.055271,16.7793719 C31.055271,18.6514057 29.5374744,20.1692024 27.6654405,20.1692024 C25.7934066,20.1692024 24.27561,18.6514057 24.27561,16.7793719 L24.27561,16.7793719 Z" id="Stroke-287" stroke="#F37070" fill="#FFFFFF"></path>
                    </g>
                </g>
            </g>
        </g>
    </g>
</svg>