<?xml version="1.0" encoding="UTF-8"?>
<svg width="70px" height="70px" viewBox="0 0 70 70" version="1.1" xmlns="http://www.w3.org/2000/svg" xmlns:xlink="http://www.w3.org/1999/xlink">
    <!-- Generator: Sketch 50 (54983) - http://www.bohemiancoding.com/sketch -->
    <title>Icons/salesforce</title>
    <desc>Created with Sketch.</desc>
    <defs>
        <rect id="path-1" x="0" y="0" width="62" height="62" rx="8"></rect>
        <filter x="-10.5%" y="-8.9%" width="121.0%" height="121.0%" filterUnits="objectBoundingBox" id="filter-2">
            <feOffset dx="0" dy="1" in="SourceAlpha" result="shadowOffsetOuter1"></feOffset>
            <feGaussianBlur stdDeviation="2" in="shadowOffsetOuter1" result="shadowBlurOuter1"></feGaussianBlur>
            <feColorMatrix values="0 0 0 0 0.176470588   0 0 0 0 0.192156863   0 0 0 0 0.219607843  0 0 0 0.25 0" type="matrix" in="shadowBlurOuter1"></feColorMatrix>
        </filter>
    </defs>
    <g id="Page-1" stroke="none" stroke-width="1" fill="none" fill-rule="evenodd">
        <g id="Kayako-Desk.com-Alternative-Landing-Page---1360" transform="translate(-191.000000, -3091.000000)">
            <g id="Section:-Features" transform="translate(0.000000, 2754.000000)">
                <g id="Salesforce-Integration" transform="translate(195.000000, 340.000000)">
                    <g id="Icons/White-Box/salesforce">
                        <g>
                            <g id="Rectangle-100" fill-rule="nonzero">
                                <use fill="black" fill-opacity="1" filter="url(#filter-2)" xlink:href="#path-1"></use>
                                <use fill="#FFFFFF" fill-rule="evenodd" xlink:href="#path-1"></use>
                            </g>
                            <g id="logo-salesforce" transform="translate(10.333333, 17.848485)" fill-rule="nonzero">
                                <path d="M23.4599088,0.952355052 C26.3196567,0.952355052 28.7969965,2.55632146 30.1271118,4.9288551 C31.2743363,4.41090761 32.5545723,4.12687189 33.901314,4.12687189 C39.0555109,4.12687189 43.2121212,8.35399169 43.2121212,13.5668825 C43.2121212,18.7797733 39.0388844,23.0068931 33.901314,23.0068931 C33.2695093,23.0068931 32.6543309,22.9400612 32.0724055,22.8231053 C30.9085546,24.9116032 28.6806114,26.3317818 26.1201394,26.3317818 C25.0560472,26.3317818 24.0418343,26.081162 23.1440064,25.6467545 C21.9635291,28.4369877 19.2035398,30.4085297 15.9946366,30.4085297 C12.6527219,30.4085297 9.79297399,28.2866159 8.69562885,25.2958868 C8.21346205,25.3961347 7.71466881,25.4462587 7.21587557,25.4462587 C3.22552963,25.4462587 0,22.1714939 0,18.111454 C0,15.4047607 1.4465004,13.032227 3.60793778,11.7624203 C3.15902387,10.7432333 2.90962725,9.60709044 2.90962725,8.40411564 C2.8930008,3.77600424 6.667203,0 11.2893537,0 C14.0160901,0 16.4435505,1.3032227 17.9731832,3.32488869 C19.3698042,1.87129414 21.3150979,0.952355052 23.4599088,0.952355052 Z" id="Fill-1" stroke="#5F6C73" stroke-width="2"></path>
                                <path d="M6.41578552,16.7487162 L6.59561225,16.2248672 C6.62830802,16.1345484 6.67735167,16.1706759 6.71004744,16.1887397 C6.75909109,16.2248672 6.79178686,16.2429309 6.8571784,16.2971222 C7.36396281,16.6583974 7.83805145,16.6583974 7.98518241,16.6583974 C8.36118375,16.6583974 8.60640201,16.4416323 8.60640201,16.1345484 L8.60640201,16.1164846 C8.60640201,15.791337 8.24674856,15.6648907 7.82170357,15.5203806 L7.72361626,15.4842531 C7.15144031,15.3036155 6.53022071,15.0326592 6.53022071,14.2378538 L6.53022071,14.2197901 C6.53022071,13.4611123 7.08604878,12.9191995 7.8870951,12.9191995 L7.96883453,12.9191995 C8.44292317,12.9191995 8.88431605,13.0637096 9.21127373,13.2985384 C9.2439695,13.3166022 9.27666527,13.3527297 9.26031738,13.406921 C9.2439695,13.4611123 9.09683854,13.8765787 9.08049066,13.93077 C9.04779489,14.0210887 8.96605547,13.9668975 8.96605547,13.9668975 C8.67179355,13.7862599 8.23040067,13.6598136 7.85439934,13.6598136 C7.51109377,13.6598136 7.29857127,13.8585149 7.29857127,14.1294713 L7.29857127,14.147535 C7.29857127,14.4546189 7.67457261,14.599129 8.0996176,14.743639 L8.18135702,14.7617028 C8.75353297,14.9604041 9.35840469,15.2313605 9.35840469,16.0081021 L9.35840469,16.0261658 C9.35840469,16.8570987 8.81892451,17.3628839 7.95248664,17.3628839 C7.52744165,17.3628839 7.11874454,17.2906289 6.67735167,17.0377363 C6.59561225,16.983545 6.51387283,16.9474175 6.4321334,16.8751625 C6.41578552,16.8390349 6.38308975,16.8209712 6.41578552,16.7487162 Z M19.1671353,16.7487162 L19.346962,16.2248672 C19.3796577,16.1345484 19.4450493,16.1706759 19.4613972,16.1887397 C19.5104408,16.2248672 19.5431366,16.2429309 19.6085281,16.2971222 C20.1153125,16.6583974 20.5894012,16.6583974 20.7365321,16.6583974 C21.1125335,16.6583974 21.3577517,16.4416323 21.3577517,16.1345484 L21.3577517,16.1164846 C21.3577517,15.791337 20.9980983,15.6648907 20.5730533,15.5203806 L20.474966,15.4842531 C19.90279,15.3036155 19.2815704,15.0326592 19.2815704,14.2378538 L19.2815704,14.2197901 C19.2815704,13.4611123 19.8373985,12.9191995 20.6384448,12.9191995 L20.7201843,12.9191995 C21.1942729,12.9191995 21.6356658,13.0637096 21.9626235,13.2985384 C21.9953192,13.3166022 22.028015,13.3527297 22.0116671,13.406921 C21.9953192,13.4611123 21.8481883,13.8765787 21.8318404,13.93077 C21.7991446,14.0210887 21.7174052,13.9668975 21.7174052,13.9668975 C21.4231433,13.7862599 20.9817504,13.6598136 20.6057491,13.6598136 C20.2624435,13.6598136 20.049921,13.8585149 20.049921,14.1294713 L20.049921,14.147535 C20.049921,14.4546189 20.4259223,14.599129 20.8509673,14.743639 L20.9327068,14.7617028 C21.5048827,14.9604041 22.1097544,15.2313605 22.1097544,16.0081021 L22.1097544,16.0261658 C22.1097544,16.8570987 21.5702742,17.3628839 20.7038364,17.3628839 C20.2787914,17.3628839 19.8700943,17.2906289 19.4287014,17.0377363 C19.346962,16.983545 19.2652226,16.9474175 19.1834831,16.8751625 C19.1834831,16.8390349 19.1507874,16.8209712 19.1671353,16.7487162 Z M28.6162124,14.2739813 C28.6816039,14.5449377 28.7306476,14.8339578 28.7306476,15.1410417 C28.7306476,15.4481256 28.6979518,15.7371457 28.6162124,16.0081021 C28.5508208,16.2790585 28.4363856,16.5138873 28.2892547,16.7125886 C28.1421237,16.91129 27.9459491,17.0738638 27.7334266,17.1822463 C27.5045562,17.2906289 27.2429901,17.3448202 26.9487282,17.3448202 C26.6544663,17.3448202 26.3929001,17.2906289 26.1640297,17.1822463 C25.9351593,17.0738638 25.7553326,16.91129 25.6082017,16.7125886 C25.4610707,16.5138873 25.3466355,16.2790585 25.281244,16.0081021 C25.2158524,15.7371457 25.1668088,15.4481256 25.1668088,15.1410417 C25.1668088,14.8339578 25.1995046,14.5449377 25.281244,14.2739813 C25.3466355,14.003025 25.4610707,13.7681961 25.6082017,13.5694948 C25.7553326,13.3707935 25.9515072,13.2082196 26.1640297,13.0998371 C26.3929001,12.9914546 26.6544663,12.9191995 26.9487282,12.9191995 C27.2429901,12.9191995 27.5045562,12.9733908 27.7334266,13.0998371 C27.962297,13.2082196 28.1421237,13.3707935 28.2892547,13.5694948 C28.4363856,13.7681961 28.5508208,14.003025 28.6162124,14.2739813 Z M27.8805576,15.122978 C27.8805576,14.6533203 27.7988182,14.2920451 27.6516872,14.0391525 C27.5045562,13.7862599 27.259338,13.6598136 26.9487282,13.6598136 C26.6217705,13.6598136 26.3929001,13.7862599 26.2457691,14.0391525 C26.0986382,14.2920451 26.0168988,14.6533203 26.0168988,15.122978 C26.0168988,15.5926357 26.0986382,15.9539108 26.2457691,16.2248672 C26.3929001,16.4777598 26.6217705,16.6042061 26.9487282,16.6042061 C27.2756859,16.6042061 27.5045562,16.4777598 27.6516872,16.2248672 C27.815166,15.9719746 27.8805576,15.5926357 27.8805576,15.122978 Z M34.599538,16.4777598 L34.7793647,17.0196725 C34.7957126,17.0919276 34.746669,17.1099913 34.746669,17.1099913 C34.4687549,17.2364376 34.0927536,17.3086926 33.7167523,17.3086926 C33.0791848,17.3086926 32.6050961,17.1099913 32.2781384,16.7125886 C31.9511808,16.315186 31.7877019,15.7732732 31.7877019,15.1049142 C31.7877019,14.7978303 31.8203977,14.5088102 31.9021371,14.2378538 C31.9838765,13.9668975 32.0983117,13.7320686 32.2617906,13.5333673 C32.4252694,13.3346659 32.621444,13.1720921 32.8503144,13.0637096 C33.0791848,12.955327 33.3570988,12.883072 33.6677086,12.883072 C33.8802311,12.883072 34.0600578,12.9011358 34.2071888,12.9191995 C34.3706676,12.955327 34.599538,13.0095183 34.6976253,13.0637096 C34.7139732,13.0637096 34.7630169,13.0998371 34.746669,13.1540284 C34.6812774,13.3707935 34.6322338,13.5153035 34.5668422,13.6959411 C34.5341465,13.7862599 34.4851028,13.7501324 34.4851028,13.7501324 C34.2398846,13.6598136 34.0110142,13.6236861 33.7167523,13.6236861 C33.3570988,13.6236861 33.0791848,13.7501324 32.9157059,14.0210887 C32.7358792,14.2739813 32.6377919,14.6171927 32.6377919,15.0868504 C32.6377919,15.5926357 32.7522271,15.9539108 32.9484017,16.1887397 C33.1445763,16.4235685 33.4224903,16.5319511 33.7821438,16.5319511 C33.9292748,16.5319511 34.0600578,16.5138873 34.174493,16.4958235 C34.2889282,16.4777598 34.4033634,16.4416323 34.5177986,16.387441 C34.5014507,16.4235685 34.5668422,16.4055048 34.599538,16.4777598 Z M38.3105077,14.1114075 C38.4739866,14.7255753 38.3922472,15.2494243 38.3758993,15.2855518 C38.3758993,15.3578068 38.3105077,15.3578068 38.3105077,15.3578068 L35.8419772,15.3578068 C35.8583251,15.7732732 35.9400645,16.0622934 36.1362391,16.2609947 C36.3160659,16.459696 36.5939799,16.5861423 36.9863291,16.5861423 C37.5748529,16.5861423 37.8200712,16.459696 37.9998979,16.387441 C37.9998979,16.387441 38.0652895,16.3693772 38.0979852,16.4416323 L38.2614641,16.9474175 C38.2941599,17.0377363 38.2614641,17.0558 38.2451162,17.0738638 C38.0979852,17.1641826 37.7219839,17.3448202 37.002677,17.3448202 C36.6593714,17.3448202 36.3487616,17.2906289 36.1035434,17.1822463 C35.8583251,17.0738638 35.6458026,16.9293537 35.4823238,16.7306524 C35.3188449,16.5319511 35.2044097,16.2971222 35.1226703,16.0442296 C35.0409309,15.7732732 35.0082351,15.4842531 35.0082351,15.1771692 C35.0082351,14.8700854 35.0409309,14.5810652 35.1226703,14.3101089 C35.1880618,14.0391525 35.302497,13.8043236 35.449628,13.6056223 C35.5967589,13.406921 35.7929336,13.2443472 36.0218039,13.1359646 C36.2506743,13.0095183 36.5285884,12.955327 36.8391982,12.955327 C37.1007643,12.955327 37.3459826,13.0095183 37.5421572,13.1179009 C37.6892881,13.1901559 37.852767,13.3166022 38.0162458,13.5153035 C38.0979852,13.5875586 38.2451162,13.8585149 38.3105077,14.1114075 Z M35.8583251,14.6894478 L37.6075487,14.6894478 C37.5912008,14.4365552 37.5421572,14.2197901 37.4440699,14.0391525 C37.2969389,13.7862599 37.0844164,13.6417498 36.7574587,13.6417498 C36.430501,13.6417498 36.2016307,13.7862599 36.0544997,14.0391525 C35.9564124,14.2017263 35.9073687,14.4184914 35.8583251,14.6894478 Z M18.5786114,14.1114075 C18.7420903,14.7255753 18.6603508,15.2494243 18.6603508,15.2855518 C18.6603508,15.3578068 18.5949593,15.3578068 18.5949593,15.3578068 L16.1264288,15.3578068 C16.1427767,15.7732732 16.2245161,16.0622934 16.4206907,16.2609947 C16.6005174,16.459696 16.8784315,16.5861423 17.2707807,16.5861423 C17.8593045,16.5861423 18.1045228,16.459696 18.2843495,16.387441 C18.2843495,16.387441 18.349741,16.3693772 18.3824368,16.4416323 L18.5459157,16.9474175 C18.5786114,17.0377363 18.5459157,17.0558 18.5295678,17.0738638 C18.3824368,17.1641826 18.0064355,17.3448202 17.2871286,17.3448202 C16.943823,17.3448202 16.6332132,17.2906289 16.3879949,17.1822463 C16.1427767,17.0738638 15.9302542,16.9293537 15.7667753,16.7306524 C15.6032965,16.5319511 15.4888613,16.2971222 15.4071219,16.0442296 C15.3253824,15.7732732 15.2926867,15.4842531 15.2926867,15.1771692 C15.2926867,14.8700854 15.3253824,14.5810652 15.4071219,14.3101089 C15.4725134,14.0391525 15.5869486,13.8043236 15.7340796,13.6056223 C15.8812105,13.406921 16.0773851,13.2443472 16.3062555,13.1359646 C16.5351259,13.0095183 16.8130399,12.955327 17.1236497,12.955327 C17.3852159,12.955327 17.6304341,13.0095183 17.8266087,13.1179009 C17.9737397,13.1901559 18.1372185,13.3166022 18.3006974,13.5153035 C18.3660889,13.5875586 18.5295678,13.8585149 18.5786114,14.1114075 Z M16.1264288,14.6894478 L17.8920003,14.6894478 C17.8756524,14.4365552 17.8266087,14.2197901 17.7285214,14.0391525 C17.5813905,13.7862599 17.368868,13.6417498 17.0419103,13.6417498 C16.7149526,13.6417498 16.4860822,13.7862599 16.3389513,14.0391525 C16.2245161,14.2017263 16.1754724,14.4184914 16.1264288,14.6894478 Z M11.7942394,14.5449377 C11.7942394,14.5449377 11.9904141,14.5630015 12.2029366,14.599129 L12.2029366,14.4907464 C12.2029366,14.1294713 12.137545,13.9488337 12.0067619,13.8404512 C11.8759789,13.7320686 11.6634564,13.6598136 11.4018902,13.6598136 C11.4018902,13.6598136 10.7970185,13.6598136 10.3229299,13.93077 C10.306582,13.9488337 10.2902341,13.9488337 10.2902341,13.9488337 C10.2902341,13.9488337 10.2248426,13.9668975 10.2084947,13.9127062 L10.0286679,13.3888572 C9.99597218,13.3166022 10.0450158,13.2804747 10.0450158,13.2804747 C10.2738862,13.0817733 10.7970185,12.9733908 10.7970185,12.9733908 C10.9768452,12.9372633 11.2711071,12.9011358 11.4509339,12.9011358 C11.9413704,12.9011358 12.3173717,13.0275821 12.5789379,13.2804747 C12.840504,13.5333673 12.9712871,13.93077 12.9712871,14.4907464 L12.9712871,16.983545 C12.9712871,16.983545 12.9712871,17.0558 12.9222435,17.0738638 C12.9222435,17.0738638 12.8241562,17.1099913 12.7424167,17.1280551 C12.6606773,17.1461188 12.3664154,17.2183739 12.1211971,17.2545014 C11.8759789,17.3086926 11.6307606,17.3267564 11.3691945,17.3267564 C11.1239762,17.3267564 10.9114537,17.3086926 10.7152791,17.2545014 C10.5191045,17.2003101 10.3556256,17.1280551 10.2084947,17.0196725 C10.0777116,16.91129 9.96327641,16.7667799 9.88153699,16.5861423 C9.79979756,16.4235685 9.7671018,16.2068034 9.7671018,15.9719746 C9.7671018,15.7371457 9.81614545,15.5203806 9.89788487,15.3397431 C9.97962429,15.1591055 10.1104074,15.0145954 10.2575383,14.8881491 C10.4046693,14.7617028 10.584496,14.6894478 10.7643227,14.6171927 C10.9604973,14.5630015 11.156672,14.526874 11.3691945,14.526874 C11.5653691,14.5449377 11.6961521,14.5449377 11.7942394,14.5449377 Z M10.8133664,16.459696 C10.8133664,16.459696 11.0422368,16.6583974 11.5326733,16.6222699 C11.8923268,16.6042061 12.2029366,16.5319511 12.2029366,16.5319511 L12.2029366,15.2855518 C12.2029366,15.2855518 11.8923268,15.2313605 11.5326733,15.2313605 C11.0258889,15.2313605 10.8133664,15.4300618 10.8133664,15.4300618 C10.6662354,15.5384444 10.6008439,15.719082 10.6008439,15.9539108 C10.6008439,16.0984209 10.6335397,16.2248672 10.6825833,16.315186 C10.6989312,16.3513135 10.7152791,16.387441 10.8133664,16.459696 Z M31.6569188,13.1540284 C31.640571,13.2262834 31.5097879,13.6056223 31.4770921,13.7320686 C31.4607442,13.7862599 31.4280485,13.8043236 31.3790048,13.8043236 C31.3790048,13.8043236 31.2318738,13.7681961 31.1010908,13.7681961 C31.0193514,13.7681961 30.8885683,13.7862599 30.7741331,13.8223874 C30.6596979,13.8585149 30.5616106,13.93077 30.4635233,14.0210887 C30.365436,14.1114075 30.3000444,14.2559176 30.2510008,14.4184914 C30.2019571,14.5810652 30.1692614,14.8520216 30.1692614,15.1410417 L30.1692614,17.1641826 C30.1692614,17.2183739 30.1365656,17.2545014 30.0875219,17.2545014 L29.4336066,17.2545014 C29.3845629,17.2545014 29.3518672,17.2183739 29.3518672,17.1641826 L29.3518672,13.0998371 C29.3518672,13.0456458 29.3845629,13.0095183 29.4172587,13.0095183 L30.0548262,13.0095183 C30.1038698,13.0095183 30.1202177,13.0456458 30.1202177,13.0998371 L30.1202177,13.4249847 C30.218305,13.2804747 30.3817839,13.1540284 30.5289148,13.0817733 C30.6760458,13.0095183 30.8558725,12.955327 31.1664823,12.9733908 C31.3299612,12.9914546 31.5424836,13.0275821 31.5751794,13.0456458 C31.640571,13.0637096 31.6732667,13.0817733 31.6569188,13.1540284 Z M25.5918538,11.2753976 C25.6082017,11.2753976 25.6572453,11.3115251 25.6408974,11.3657164 L25.4447228,11.9437566 C25.4283749,11.9798841 25.412027,12.0160116 25.3302876,11.9798841 C25.3139397,11.9798841 25.281244,11.9618204 25.1995046,11.9437566 C25.1504609,11.9256928 25.0687215,11.9256928 25.0033299,11.9256928 C24.9052426,11.9256928 24.8235032,11.9437566 24.7417638,11.9618204 C24.6600244,11.9798841 24.5946328,12.0340754 24.5292413,12.1063304 C24.4638498,12.1785855 24.3984582,12.2689042 24.3494146,12.3953505 C24.2513273,12.6843707 24.2186315,12.9914546 24.2186315,13.0095183 L25.0033299,13.0095183 C25.0687215,13.0095183 25.0850694,13.0456458 25.0850694,13.0998371 L24.9869821,13.6598136 C24.9706342,13.7501324 24.9052426,13.7320686 24.9052426,13.7320686 L24.0878484,13.7320686 L23.5647161,17.2183739 C23.4993246,17.579649 23.433933,17.8867329 23.3521936,18.1396255 C23.2704542,18.3925181 23.1723669,18.5731557 23.0252359,18.7537933 C22.8944529,18.9163671 22.7473219,19.0428134 22.5674952,19.0970047 C22.4040163,19.1692597 22.1914938,19.2053872 21.9626235,19.2053872 C21.8481883,19.2053872 21.7337531,19.2053872 21.60297,19.1692597 C21.5048827,19.1511959 21.4558391,19.1331322 21.3740996,19.0970047 C21.3414039,19.0789409 21.325056,19.0428134 21.3414039,18.9886221 C21.3577517,18.9344308 21.5048827,18.5009007 21.5212306,18.4286456 C21.5539264,18.3563906 21.60297,18.3925181 21.60297,18.3925181 C21.6520137,18.4105819 21.6847094,18.4286456 21.7337531,18.4467094 C21.7991446,18.4647731 21.8645362,18.4647731 21.9299277,18.4647731 C22.0443629,18.4647731 22.1424502,18.4467094 22.2241896,18.4105819 C22.3222769,18.3744544 22.3876685,18.3021993 22.45306,18.2118805 C22.5184515,18.1215617 22.5674952,17.9951154 22.6328867,17.8325416 C22.6819304,17.6699678 22.730974,17.4351389 22.7800177,17.1641826 L23.3358457,13.7501324 L22.7963656,13.7501324 C22.730974,13.7501324 22.7146261,13.7140049 22.7146261,13.6598136 L22.8127134,13.0998371 C22.8290613,13.0095183 22.8944529,13.0275821 22.8944529,13.0275821 L23.4502809,13.0275821 L23.4829767,12.8469445 C23.5647161,12.3050318 23.728195,11.8895653 23.9734132,11.618609 C24.2186315,11.3476526 24.5782849,11.2031425 25.0196778,11.2031425 C25.1504609,11.2031425 25.2648961,11.2212063 25.3629834,11.2392701 C25.4283749,11.2212063 25.5101144,11.2392701 25.5918538,11.2753976 Z M14.5733798,17.1461188 C14.5733798,17.2003101 14.540684,17.2364376 14.5079882,17.2364376 L13.8540729,17.2364376 C13.8050292,17.2364376 13.7886813,17.2003101 13.7886813,17.1461188 L13.7886813,11.3476526 C13.7886813,11.3115251 13.8213771,11.2573338 13.8540729,11.2573338 L14.5079882,11.2573338 C14.5570319,11.2573338 14.5733798,11.2934613 14.5733798,11.3476526 L14.5733798,17.1461188 Z" id="Combined-Shape" fill="#5F6C73"></path>
                            </g>
                        </g>
                    </g>
                </g>
            </g>
        </g>
    </g>
</svg>