<?xml version="1.0" encoding="UTF-8"?>
<svg width="42px" height="46px" viewBox="0 0 42 46" version="1.1" xmlns="http://www.w3.org/2000/svg" xmlns:xlink="http://www.w3.org/1999/xlink">
    <!-- Generator: Sketch 45.2 (43514) - http://www.bohemiancoding.com/sketch -->
    <title>Group 27</title>
    <desc>Created with Sketch.</desc>
    <defs></defs>
    <g id="💬-Messenge-page" stroke="none" stroke-width="1" fill="none" fill-rule="evenodd">
        <g id="Messenger-page---New" transform="translate(-694.000000, -969.000000)" fill-rule="nonzero">
            <g id="Group-27" transform="translate(694.000000, 969.000000)">
                <path d="M12,25 C12,24.4477153 12.4477153,24 13,24 L29,24 C29.5522847,24 30,24.4477153 30,25 C30,29.9522847 25.9522847,34 21,34 C16.0477153,34 12,29.9522847 12,25 Z M21,32 C24.5084125,32 27.4386369,29.3791577 27.9281461,26 L14.0718539,26 C14.5613631,29.3791577 17.4915875,32 21,32 Z" id="Shape" fill="#87B8C0"></path>
                <path d="M34,17 C34,14.2477153 31.7522847,12 29,12 C26.2477153,12 24,14.2477153 24,17 C24,17.5522847 24.4477153,18 25,18 C25.5522847,18 26,17.5522847 26,17 C26,15.3522847 27.3522847,14 29,14 C30.6477153,14 32,15.3522847 32,17 C32,17.5522847 32.4477153,18 33,18 C33.5522847,18 34,17.5522847 34,17 Z" id="Shape-Copy-2" fill="#87B8C0"></path>
                <path d="M19,17 C19,14.2477153 16.7522847,12 14,12 C11.2477153,12 9,14.2477153 9,17 C9,17.5522847 9.44771525,18 10,18 C10.5522847,18 11,17.5522847 11,17 C11,15.3522847 12.3522847,14 14,14 C15.6477153,14 17,15.3522847 17,17 C17,17.5522847 17.4477153,18 18,18 C18.5522847,18 19,17.5522847 19,17 Z" id="Shape-Copy" fill="#87B8C0"></path>
                <path d="M38,39 L38,43 C38,43.5477153 38.4522847,44 39,44 C39.5477153,44 40,43.5477153 40,43 L40,39 L38,39 Z M40,37 L40,37 Z M40,21 C40,19.6666667 42,19.6666667 42,21 L42,43 C42,44.6522847 40.6522847,46 39,46 C37.3477153,46 36,44.6522847 36,43 L36,38 C36,37.4477153 36.4477153,37 37,37 L40,37 L40,21 Z M2,21 C2,31.4934102 10.5065898,40 21,40 C31.4934102,40 40,31.4934102 40,21 C40,10.5065898 31.4934102,2 21,2 C10.5065898,2 2,10.5065898 2,21 Z M0,21 C0,9.40202025 9.40202025,0 21,0 C32.5979797,0 42,9.40202025 42,21 C42,32.5979797 32.5979797,42 21,42 C9.40202025,42 0,32.5979797 0,21 Z" id="Combined-Shape" fill="#40364D"></path>
            </g>
        </g>
    </g>
</svg>